<?xml version="1.0" encoding="UTF-8" standalone="no"?>
<!-- Created with Inkscape (http://www.inkscape.org/) -->

<svg
   width="200mm"
   height="200mm"
   viewBox="0 0 200 200"
   version="1.1"
   id="svg1"
   xml:space="preserve"
   inkscape:export-filename="lompstar_logo_white.svg"
   inkscape:export-xdpi="96"
   inkscape:export-ydpi="96"
   xmlns:inkscape="http://www.inkscape.org/namespaces/inkscape"
   xmlns:sodipodi="http://sodipodi.sourceforge.net/DTD/sodipodi-0.dtd"
   xmlns="http://www.w3.org/2000/svg"
   xmlns:svg="http://www.w3.org/2000/svg"><sodipodi:namedview
     id="namedview1"
     pagecolor="#ffffff"
     bordercolor="#000000"
     borderopacity="0.25"
     inkscape:showpageshadow="2"
     inkscape:pageopacity="0.0"
     inkscape:pagecheckerboard="0"
     inkscape:deskcolor="#d1d1d1"
     inkscape:document-units="mm" /><defs
     id="defs1" /><g
     inkscape:label="Camada 1"
     inkscape:groupmode="layer"
     id="layer1"><path
       style="fill:#000000;stroke-width:1.22136"
       d="M 91.796269,198.11826 C 75.535752,196.698 59.799273,191.12853 45.97378,181.90071 40.032051,177.93491 37.028423,175.52491 32.08452,170.75651 16.150559,155.38819 6.3583236,136.50141 2.865786,114.40081 2.2639369,110.59234 2.1805302,108.86375 2.1785883,100.15869 2.1761456,89.18113 2.3849125,87.066853 4.334788,78.321897 6.1800784,70.046053 9.0288376,62.246966 13.008527,54.575719 27.750393,26.159296 55.652306,6.7005947 87.505365,2.6218512 92.843242,1.9383419 102.79881,1.7006935 108.05088,2.1314095 c 33.84082,2.7752419 63.76114,22.5525095 79.21294,52.3595845 6.65937,12.846145 10.04452,25.178624 11.0621,40.300339 0.5712,8.488467 -0.40673,19.516087 -2.48408,28.011897 -8.20479,33.55532 -32.43385,59.76265 -65.49893,70.84686 -11.64369,3.90326 -25.9836,5.56548 -38.546641,4.46817 z m 20.081111,-2.90398 c 25.67319,-3.25829 49.31179,-17.02993 65.05629,-37.90123 8.33672,-11.05138 14.55211,-24.95759 17.18111,-38.44076 1.2982,-6.65795 1.76892,-11.63049 1.77152,-18.7136 0.007,-19.856151 -5.52309,-37.810204 -16.78959,-54.50644 C 174.73455,39.187803 166.58323,30.44623 160.2204,25.409064 136.3442,6.5073219 105.93505,-0.05791098 76.490635,7.3320911 45.294155,15.161837 20.254692,38.149819 9.6089832,68.734154 8.0956948,73.081692 6.1620634,80.999422 5.3953796,85.987684 4.4684535,92.018591 4.2382151,103.68922 4.9203564,110.06626 7.2720712,132.0514 16.850581,152.0674 32.484393,167.66621 c 16.1802,16.14398 37.092544,25.88703 60.085912,27.99402 4.2191,0.38661 14.644395,0.14582 19.307075,-0.44595 z m -18.378244,-2.19286 c -0.340576,-0.0502 -2.151802,-0.25098 -4.024952,-0.4463 C 73.938508,190.9552 57.010409,184.11502 43.976491,174.19076 24.840651,159.62039 11.951025,138.22073 8.2196872,114.82651 6.4308723,103.61125 6.6314806,93.08176 8.8448276,82.014603 13.63346,58.070492 27.241086,37.317145 47.224745,23.480343 72.731915,5.8190458 106.00742,2.1480762 135.03827,13.792711 c 40.30651,16.167431 64.14207,58.496026 57.04676,101.306949 -2.14158,12.92161 -7.10106,25.56544 -14.17599,36.14068 -15.72075,23.49852 -40.5017,38.55045 -68.3101,41.49152 -3.69356,0.39064 -14.137629,0.57848 -16.099804,0.28956 z m 19.272584,-3.20161 c 16.07911,-2.42713 31.33846,-9.04572 44.04296,-19.10317 3.64014,-2.8817 11.80976,-11.12736 14.53778,-14.67309 6.98036,-9.07268 11.63482,-17.80227 15.02224,-28.17464 6.80176,-20.82719 5.74539,-43.376279 -2.98793,-63.779963 C 171.84222,37.117416 147.32906,17.251497 118.43698,11.45246 111.13693,9.9872392 108.66855,9.7648493 99.846177,9.7775123 90.982404,9.7902389 87.440804,10.164764 79.562732,11.922515 48.426868,18.869541 22.795144,42.858671 13.454506,73.794245 4.8166874,102.40214 10.63523,132.76153 29.287718,156.40708 c 1.387049,1.75835 4.629073,5.29268 7.204492,7.85407 15.030705,14.94877 34.722984,24.15444 55.923288,26.1428 4.714889,0.4422 15.632442,0.12891 20.356222,-0.58414 z M 97.214478,164.2022 c -5.652344,-0.36781 -11.40442,-1.45639 -16.409416,-3.10546 -2.5725,-0.84761 -9.356954,-3.81201 -10.406077,-4.54684 -0.576348,-0.40369 -0.557478,-0.45394 0.462626,-1.23201 l 1.063474,-0.81115 3.201549,1.52712 c 15.766794,7.52074 34.306246,7.52683 50.028636,0.0164 l 3.21372,-1.53516 1.06053,0.68682 c 0.58329,0.37776 1.06225,0.78197 1.06436,0.89825 0.006,0.34958 -6.76189,3.52798 -9.74892,4.57815 -7.24463,2.54705 -16.72473,3.96677 -23.530482,3.52389 z m -35.638482,-6.79062 c 0.124774,-0.32516 2.092408,-6.79181 4.372515,-14.37031 2.280094,-7.57851 5.320631,-17.54088 6.756729,-22.13862 l 2.611083,-8.3595 -1.034442,-0.94961 C 73.712947,111.07126 65.229728,104.61377 55.430312,97.243552 45.630883,89.873347 37.547501,83.736915 37.467233,83.607048 37.386993,83.477181 39.233282,83.28213 41.570133,83.1736 45.16982,83.00642 72.13064,82.190308 81.579099,81.962524 l 2.941301,-0.07096 5.522608,-16.099797 c 3.037434,-8.854891 6.520567,-19.058076 7.740294,-22.673763 1.219722,-3.615675 2.305928,-6.576336 2.413798,-6.579242 0.10784,-0.0024 0.26525,0.30821 0.34976,0.69135 0.0845,0.38314 2.48248,7.453894 5.32882,15.712773 2.84634,8.258892 6.22506,18.107004 7.50827,21.884692 l 2.33309,6.868533 1.89473,0.162466 c 1.04211,0.0894 10.53288,0.394108 21.09064,0.677219 10.55775,0.283099 20.38018,0.602276 21.82761,0.70928 l 2.6317,0.194538 -4.17976,3.170306 c -2.29887,1.74368 -10.6476,8.048323 -18.55275,14.010321 -7.90514,5.96201 -14.60879,11.05341 -14.89698,11.31422 -0.48967,0.44314 -0.44808,0.72197 0.63497,4.25675 0.63743,2.08042 2.69908,8.79827 4.58145,14.92858 1.88237,6.1303 4.40989,14.42014 5.6167,18.42187 1.20682,4.00173 2.27591,7.53652 2.37577,7.85508 0.22572,0.72009 1.39223,1.51604 -19.38942,-13.23016 -9.11032,-6.46449 -17.14482,-12.16442 -17.85446,-12.66651 -0.8083,-0.5719 -1.44437,-0.82151 -1.702861,-0.66822 -0.22694,0.13457 -6.6126,4.65597 -14.19034,10.04755 -14.668658,10.43679 -23.187992,16.46396 -23.849541,16.87282 -0.302885,0.1872 -0.348027,0.10101 -0.178502,-0.34069 z m 64.980074,-16.42794 c -3.72022,-5.25481 -11.14737,-15.79416 -16.50476,-23.42078 l -9.74072,-13.86659 -0.15481,2.25615 c -0.0851,1.24089 -0.11615,6.52923 -0.0689,11.75189 l 0.086,9.49571 8.11875,5.73839 c 4.4653,3.15613 11.88051,8.4374 16.47823,11.73614 4.59773,3.29876 8.40242,5.96749 8.45487,5.93052 0.0524,-0.037 -2.94846,-4.36662 -6.6687,-9.62143 z m -58.135467,8.55807 c 0.105281,-0.17029 0.05203,-0.30961 -0.118228,-0.30961 -0.170282,0 -0.39572,0.13932 -0.500953,0.30961 -0.105281,0.17029 -0.05203,0.30961 0.118228,0.30961 0.170282,0 0.395708,-0.13932 0.500953,-0.30961 z m 1.123137,-0.85143 c 0.385119,-0.49106 0.374163,-0.50201 -0.116884,-0.11688 -0.297999,0.23371 -0.541819,0.47753 -0.541819,0.54182 0,0.25482 0.25425,0.0909 0.658715,-0.42492 z m 2.437393,-1.82244 c 0,-0.0851 -0.417973,0.14283 -0.928831,0.50659 -0.510858,0.36377 -0.928832,0.73105 -0.928832,0.8162 0,0.0851 0.417974,-0.14282 0.928832,-0.50659 0.510858,-0.36377 0.928831,-0.73105 0.928831,-0.8162 z m -2.127778,0.27438 c 0.385119,-0.49106 0.374163,-0.50201 -0.116885,-0.11688 -0.297999,0.23371 -0.541819,0.47753 -0.541819,0.54182 0,0.25482 0.254238,0.0909 0.658716,-0.42492 z m 19.345132,-39.78506 c 5.83795,-2.08601 10.517445,-3.88184 10.398863,-3.99073 -0.194612,-0.17872 -4.894356,-1.70066 -28.235434,-9.143603 -4.001722,-1.276064 -9.783722,-3.133312 -12.848869,-4.127217 -8.327666,-2.700334 -12.887831,-4.088494 -13.014559,-3.961778 -0.06229,0.06229 0.544384,0.601947 1.348161,1.199241 4.774195,3.547798 29.495017,22.205667 30.391031,22.937427 0.592225,0.48366 1.137427,0.87939 1.211564,0.87939 0.07414,0 4.911305,-1.70674 10.749243,-3.79273 z m 49.310153,-8.737691 c 9.02796,-6.806567 16.37718,-12.412893 16.33162,-12.458461 -0.16617,-0.166154 -53.48443,16.874422 -53.8252,17.202602 -0.1234,0.11884 3.22041,1.45853 7.43068,2.9771 4.21027,1.51855 8.8393,3.20953 10.28674,3.75772 1.44743,0.54819 2.79594,0.9742 2.9967,0.94668 0.20075,-0.0275 7.75151,-5.61904 16.77946,-12.425641 z m -31.08778,-5.427689 6.29745,-8.824595 -2.10908,-6.19157 c -3.98939,-11.711576 -11.21013,-32.508721 -11.33171,-32.63755 -0.0669,-0.07096 -0.11737,12.886291 -0.11187,28.793859 0.008,26.032756 0.0572,28.860996 0.48381,28.303656 0.26068,-0.34058 3.30782,-4.590279 6.77141,-9.4438 z M 57.114969,146.69876 C 45.913909,135.5917 39.422275,122.21483 37.931887,107.16955 37.396724,101.7671 37.705325,94.578462 38.651659,90.403209 l 0.355867,-1.570045 1.060592,0.888014 1.060591,0.888014 -0.368191,2.631931 c -2.617604,18.711487 4.126326,38.126867 17.874189,51.458807 1.380514,1.33875 2.503749,2.66233 2.496067,2.9413 -0.0073,0.27899 -0.18401,0.90529 -0.391837,1.3918 l -0.377864,0.88459 z m 82.357791,1.90047 -0.34271,-1.27276 3.34788,-3.45915 c 8.44968,-8.73048 14.01502,-18.9109 16.36237,-29.93092 1.23525,-5.79911 1.66519,-12.85206 1.08524,-17.80266 -0.75802,-6.470601 -0.79329,-5.800722 0.34633,-6.577849 0.93997,-0.640981 1.03496,-0.65306 1.21716,-0.154807 1.12771,3.083883 1.41578,16.095666 0.47808,21.594006 -1.72968,10.1423 -5.54435,19.28336 -11.41271,27.34822 -2.13633,2.93593 -6.24995,7.53914 -8.61834,9.64404 l -2.12057,1.88465 z M 29.348981,138.71894 c -3.61885,-2.20656 -2.485197,-7.61179 1.671565,-7.97002 2.649531,-0.22832 4.54552,1.55642 4.54552,4.2788 0,3.2717 -3.498498,5.34885 -6.217085,3.69122 z m 137.693409,0.0633 c -1.40906,-0.7108 -2.28041,-2.25444 -2.25413,-3.99326 0.057,-3.77161 4.42789,-5.49946 7.11482,-2.81254 3.41349,3.41349 -0.55909,8.97579 -4.86069,6.8058 z M 19.047269,105.70302 c 0.505532,-1.49555 0.914553,-2.93687 0.908947,-3.20293 -0.0061,-0.26606 -1.150117,-1.31969 -2.543334,-2.3414 l -2.533111,-1.857673 3.306134,-0.08782 3.306134,-0.08781 0.962626,-3.005117 c 0.529447,-1.652828 1.009563,-3.052066 1.066931,-3.109434 0.0574,-0.0574 0.564475,1.2996 1.126911,3.015487 l 1.022595,3.11979 h 3.185085 c 1.751783,0 3.181482,0.104548 3.177097,0.232205 -0.0049,0.127713 -0.66619,0.679376 -1.470663,1.225922 -0.80446,0.54655 -1.936819,1.3908 -2.516341,1.87612 l -1.053667,0.88239 0.972788,2.90055 c 0.535029,1.59529 0.921967,2.95135 0.859849,3.01348 -0.06217,0.0622 -1.269994,-0.71583 -2.684156,-1.72877 l -2.571206,-1.84171 -2.287239,1.69149 c -3.303105,2.44276 -3.296644,2.44477 -2.23538,-0.69488 z m 152.395421,2.27336 c 1.20173,-3.26322 1.79711,-5.56734 1.52283,-5.89336 -0.17412,-0.20696 -1.29639,-1.0729 -2.49393,-1.92433 -1.19753,-0.851437 -2.18273,-1.652563 -2.18931,-1.780263 -0.006,-0.127718 1.42473,-0.232217 3.1807,-0.232217 h 3.19268 l 0.89126,-2.863903 c 0.49021,-1.57515 0.97485,-2.967072 1.07702,-3.093165 0.10211,-0.126093 0.64046,1.158031 1.19623,2.853608 l 1.01049,3.082856 3.31154,0.08769 3.31153,0.08769 -2.66901,1.963294 -2.66902,1.96329 0.84425,2.71586 c 0.46435,1.49371 0.9568,2.89794 1.09436,3.12049 0.43161,0.69838 -0.59105,0.13422 -3.04075,-1.67741 l -2.30262,-1.70287 -2.50662,1.83986 c -2.58137,1.89472 -3.00677,2.11851 -2.76163,1.45284 z M 41.639213,79.640708 c 0,-0.426376 1.508757,-4.035737 2.550662,-6.101861 9.304448,-18.451158 27.567188,-31.463336 47.761201,-34.029802 1.87315,-0.238067 3.462883,-0.378878 3.532732,-0.312924 0.06986,0.06595 -0.03481,0.660144 -0.232668,1.320423 -0.357065,1.19179 -0.373724,1.202037 -2.294287,1.412368 -20.281768,2.221127 -38.95343,15.929381 -47.431532,34.823026 l -1.333797,2.972385 -1.276149,0.09514 c -0.701891,0.0524 -1.276162,-0.02809 -1.276162,-0.17882 z M 155.98,79.337311 c -0.10784,-0.298 -0.7182,-1.68434 -1.35644,-3.080757 -4.55165,-9.95884 -12.39092,-18.976342 -21.95857,-25.258928 -6.85456,-4.501039 -17.31451,-8.25088 -25.36142,-9.091957 -1.71211,-0.178953 -1.87822,-0.264827 -2.17853,-1.126264 -0.57512,-1.649812 -0.49162,-1.739423 1.45519,-1.561898 6.07888,0.55435 14.30896,2.904709 20.42658,5.833443 7.14418,3.420184 12.41969,7.221201 17.88783,12.888258 4.06171,4.209451 6.22732,7.002895 8.94327,11.535982 1.82229,3.041501 4.83443,9.334762 4.83443,10.10053 0,0.166874 -0.56166,0.30341 -1.24815,0.30341 -0.90764,0 -1.30164,-0.147809 -1.44419,-0.541819 z m 5.07939,-6.287105 -1.17348,-2.174252 1.27818,-2.914444 1.27817,-2.914456 -0.85076,-1.563132 -0.85076,-1.563132 -1.42121,0.822573 c -0.78167,0.452404 -1.69603,1.009906 -2.03191,1.238886 -0.3359,0.228968 -0.75388,0.416129 -0.92885,0.415897 -0.34851,-4.52e-4 -2.5595,-3.914297 -2.32234,-4.11096 0.0806,-0.06681 2.93306,-1.765829 6.33878,-3.775539 3.40572,-2.00971 6.85611,-4.0528 7.66754,-4.540195 0.81142,-0.487396 1.59652,-0.886182 1.74466,-0.886182 0.35383,0 4.94058,7.721983 5.47325,9.214459 0.54116,1.516195 0.54904,4.168132 0.0161,5.443415 -0.54823,1.312106 -2.6477,3.101531 -4.1762,3.559492 -1.67935,0.503139 -2.77856,0.439494 -4.29449,-0.248657 l -1.30934,-0.594374 -0.56613,1.297804 c -0.31136,0.713787 -0.97226,2.238238 -1.46864,3.387672 -0.4964,1.149433 -0.97603,2.087522 -1.06585,2.084628 -0.0898,-0.0024 -0.69138,-0.983671 -1.3368,-2.179503 z m 9.6104,-9.03818 c 1.08745,-1.015035 0.94287,-2.801517 -0.40834,-5.045411 -0.60773,-1.009233 -1.14872,-1.878731 -1.20219,-1.932202 -0.0535,-0.05349 -1.16732,0.552457 -2.47521,1.3465 -2.64748,1.607321 -2.60585,1.437002 -1.00781,4.123406 1.49429,2.51203 3.41007,3.079107 5.09355,1.507707 z m -139.949149,4.665702 -7.977259,-4.667021 1.13391,-2.05076 c 0.623651,-1.127913 1.163809,-2.089514 1.200352,-2.13689 0.05521,-0.07169 8.460477,4.756583 11.802983,6.780021 l 0.969222,0.586741 2.381931,-4.005838 2.381919,-4.005838 1.602631,0.940202 c 0.881455,0.517111 1.645476,0.97986 1.697835,1.028335 0.0524,0.04849 -0.795837,1.601092 -1.88485,3.450279 -1.089012,1.849174 -2.664431,4.577324 -3.500916,6.06257 -0.836484,1.485234 -1.590539,2.697006 -1.67568,2.692829 -0.08513,-0.0037 -3.744577,-2.107773 -8.132078,-4.67463 z m 119.946339,-11.769836 -1.65834,-1.594704 0.5747,-1.881748 c 0.31608,-1.034967 0.57469,-1.97931 0.57469,-2.098539 0,-0.119205 -1.39206,-1.462688 -3.09346,-2.985442 l -3.09346,-2.768638 -1.79319,0.905199 c -1.08224,0.546313 -1.95951,0.809309 -2.21269,0.663344 -0.58846,-0.339232 -3.34411,-2.912709 -3.22143,-3.008452 0.0555,-0.04336 4.19513,-2.04723 9.19914,-4.453136 5.29189,-2.544311 9.26142,-4.280644 9.48833,-4.150325 0.21457,0.123223 1.10015,0.890395 1.96797,1.704822 l 1.57783,1.480776 -2.93887,9.537569 c -1.61637,5.245664 -2.93886,9.699521 -2.93886,9.897455 0,0.725988 -0.81356,0.308503 -2.43236,-1.248181 z m 3.20043,-16.287325 c -0.0419,-0.05105 -1.44176,0.636878 -3.11068,1.528605 l -3.03441,1.621329 1.98349,1.824308 1.9835,1.824308 1.12718,-3.352912 c 0.61995,-1.844106 1.09286,-3.394646 1.05092,-3.445638 z M 44.238803,55.618675 c -5.562961,-1.823074 -8.253457,-8.020629 -5.766843,-13.283918 2.887684,-6.112194 9.967488,-8.36322 15.155895,-4.818824 2.623992,1.792553 4.320875,5.393498 4.033758,8.559969 -0.57162,6.303899 -7.744773,11.403574 -13.42281,9.542773 z m 6.218025,-4.931824 c 3.523645,-1.995677 3.468855,-7.281646 -0.09893,-9.544263 -1.689152,-1.071229 -3.539047,-1.1796 -5.247888,-0.30744 -1.418877,0.724156 -2.070448,1.427488 -2.684962,2.898236 -0.652328,1.561252 -0.59733,2.88126 0.187613,4.502749 1.392215,2.875934 5.066527,4.023889 7.844167,2.450718 z m 12.821999,-8.192487 c -2.139052,-4.987322 -6.468648,-15.559517 -6.468648,-15.795386 0,-0.154685 0.842628,-0.644816 1.872515,-1.089196 l 1.872514,-0.807941 4.9355,3.718965 c 2.71452,2.045435 5.05578,3.644622 5.202795,3.553753 0.147027,-0.09087 0.347013,-1.110143 0.444428,-2.265072 0.09746,-1.154942 0.414249,-3.865699 0.704065,-6.023914 l 0.526931,-3.92402 1.860753,-0.806988 c 1.023401,-0.443842 1.908203,-0.759515 1.966217,-0.7015 0.220883,0.22087 7.590308,17.003921 7.495432,17.070008 -0.325968,0.227088 -4.06704,1.733317 -4.127265,1.661721 -0.04018,-0.04776 -0.94885,-2.176719 -2.019298,-4.731021 -1.070448,-2.554289 -2.039401,-4.752369 -2.153219,-4.884618 -0.113831,-0.132261 -0.461833,2.063035 -0.773377,4.878426 l -0.56643,5.1189 -1.152682,0.345351 c -1.151607,0.345022 -1.156212,0.342689 -4.929418,-2.506583 -2.07719,-1.568567 -3.817126,-2.804668 -3.866518,-2.746898 -0.04934,0.05777 0.797279,2.188016 1.881492,4.733866 1.084213,2.545862 1.86686,4.732779 1.739228,4.859837 -0.127632,0.127046 -1.037985,0.58712 -2.022986,1.022375 l -1.790928,0.791392 z m 66.522263,-1.336521 c -0.97915,-0.505398 -1.78027,-1.072378 -1.78027,-1.259966 0,-0.187589 1.40431,-3.200621 3.12068,-6.695625 2.4296,-4.947323 3.02955,-6.415519 2.7091,-6.629843 -0.22637,-0.151412 -1.35203,-0.721726 -2.50147,-1.26738 -1.14943,-0.545642 -2.08986,-1.121208 -2.08986,-1.27902 0,-0.224314 1.35463,-2.770873 1.71463,-3.223325 0.16741,-0.210392 14.38515,7.086619 14.38515,7.38292 0,0.175241 -0.35462,1.018443 -0.78807,1.873797 l -0.78807,1.555182 -2.56364,-1.397443 -2.56365,-1.397443 -3.29779,6.643425 c -1.81378,3.653879 -3.40549,6.636719 -3.53713,6.628524 -0.13165,-0.0085 -1.04047,-0.428404 -2.01961,-0.933803 z m -16.76297,-5.405161 c -2.09271,-0.574589 -5.17325,-2.133812 -6.04131,-3.05782 l -0.72265,-0.769224 1.19755,-1.5181 1.19756,-1.518101 1.56754,1.183497 c 2.63326,1.988129 6.2409,2.78851 7.38991,1.639504 1.13273,-1.132725 0.51657,-1.790256 -3.75097,-4.002834 -3.86479,-2.003762 -4.88601,-3.184853 -4.85094,-5.610386 0.0255,-1.769677 0.70566,-3.116408 2.09183,-4.142374 2.44022,-1.806097 7.17497,-1.599272 10.99589,0.480324 2.58188,1.405247 2.6444,1.709683 0.8155,3.970467 l -0.7202,0.890261 -1.35067,-0.911879 c -3.47667,-2.34722 -6.92366,-2.46684 -6.92366,-0.240278 0,0.855294 0.23411,1.041929 3.34298,2.66525 4.71445,2.461662 5.48095,3.300003 5.48095,5.994736 0,4.230251 -4.3205,6.429308 -9.71931,4.946957 z M 87.754584,34.288846 c -0.0085,-0.38314 -0.328216,-4.558259 -0.708914,-9.278043 l -0.692169,-8.581416 0.786311,-0.14914 c 0.432472,-0.08207 2.747167,-0.312655 5.143755,-0.512531 5.215952,-0.434999 7.080931,-0.07218 9.125943,1.775343 2.1306,1.924862 2.69393,5.661171 1.21917,8.086216 -1.32114,2.172444 -3.728946,3.290513 -7.820198,3.631309 l -2.665115,0.222006 0.14848,1.590393 c 0.08171,0.874725 0.200767,2.024598 0.264693,2.555279 l 0.116274,0.964861 -1.876912,0.196175 c -2.880087,0.301028 -3.022558,0.277591 -3.041257,-0.500452 z m 9.575374,-9.499512 c 0.85903,-0.459731 1.279886,-1.307782 1.267917,-2.554973 -0.0182,-1.898236 -1.216071,-2.73157 -3.917342,-2.725231 -3.250977,0.0073 -3.230849,-0.01221 -3.017661,2.896869 0.101495,1.38441 0.227991,2.664431 0.281157,2.844484 0.120914,0.409351 4.452367,0.03847 5.385929,-0.461149 z"
       id="path1" /></g></svg>
