<?xml version="1.0" encoding="UTF-8" standalone="no"?>
<!-- Created with Inkscape (http://www.inkscape.org/) -->

<svg
   width="400mm"
   height="400mm"
   viewBox="0 0 400 400"
   version="1.1"
   id="svg1"
   xml:space="preserve"
   inkscape:version="1.3.2 (091e20e, 2023-11-25, custom)"
   sodipodi:docname="lompstar_logo.svg"
   xmlns:inkscape="http://www.inkscape.org/namespaces/inkscape"
   xmlns:sodipodi="http://sodipodi.sourceforge.net/DTD/sodipodi-0.dtd"
   xmlns="http://www.w3.org/2000/svg"
   xmlns:svg="http://www.w3.org/2000/svg"><sodipodi:namedview
     id="namedview1"
     pagecolor="#ffffff"
     bordercolor="#000000"
     borderopacity="0.25"
     inkscape:showpageshadow="2"
     inkscape:pageopacity="0.0"
     inkscape:pagecheckerboard="0"
     inkscape:deskcolor="#d1d1d1"
     inkscape:document-units="mm"
     inkscape:zoom="0.18645874"
     inkscape:cx="833.96466"
     inkscape:cy="648.93713"
     inkscape:window-width="1440"
     inkscape:window-height="830"
     inkscape:window-x="-6"
     inkscape:window-y="-6"
     inkscape:window-maximized="1"
     inkscape:current-layer="layer1" /><defs
     id="defs1" /><g
     inkscape:label="Camada 1"
     inkscape:groupmode="layer"
     id="layer1"><path
       style="fill:#ffffff;stroke-width:4.66517"
       d="m 190.29817,384.66069 -5.73111,-0.41008 -2.99019,-0.2631 -2.99014,-0.26312 -1.74426,-0.2244 -1.74426,-0.22439 -4.48521,-0.50234 -4.48524,-0.5024 -3.23935,-0.70542 -3.23931,-0.70542 -4.98362,-1.08987 -4.9836,-1.08988 -7.97372,-2.47633 -7.97375,-2.47626 -0.99671,-0.44926 -0.99677,-0.44925 -5.98028,-2.3212 -5.98033,-2.32121 -4.98359,-2.34158 -4.9836,-2.34155 -7.22621,-4.16394 -7.226213,-4.16394 -6.923897,-4.71084 -6.92391,-4.71085 -5.036722,-4.04073 -5.036722,-4.0407 -6.727845,-6.74074 -6.727857,-6.74075 -2.002949,-2.23988 -2.00295,-2.23986 -2.482284,-2.93183 -2.482285,-2.93183 -3.122939,-4.29438 -3.122944,-4.29439 -2.927925,-4.31435 -2.92792,-4.31435 -2.797269,-4.98392 -2.797268,-4.9839 -3.184001,-6.40006 -3.184001,-6.40005 -2.25831,-5.73114 -2.258316,-5.73113 -1.956651,-5.99519 -1.956652,-5.99519 -0.640419,-2.7261 -0.640426,-2.7261 -0.917904,-3.48851 -0.917906,-3.48853 -1.023509,-5.9803 -1.023511,-5.98032 -0.726874,-6.47867 -0.7268761,-6.47867 0.034989,-11.96063 0.034989,-11.96062 0.4248101,-3.98688 0.42481,-3.98688 0.484035,-4.23605 0.484034,-4.23606 1.077757,-5.73113 1.077757,-5.73114 1.19209,-4.73441 1.192091,-4.73441 2.227507,-6.72785 2.227506,-6.72786 1.581072,-3.98687 1.581078,-3.98687 0.918501,-2.24263 0.918497,-2.24261 3.44324,-6.72785 3.443236,-6.72786 3.087745,-5.23276 3.087739,-5.23277 3.857764,-5.574231 3.857763,-5.574229 3.449459,-4.143781 3.449472,-4.143784 2.013055,-2.223065 2.013043,-2.22307 7.485296,-7.49494 7.485319,-7.494944 5.970394,-4.787737 5.970395,-4.787742 1.993442,-1.301703 1.993431,-1.301704 4.722111,-3.254794 4.72211,-3.254796 h 0.410026 0.410025 l 2.830407,-1.810594 2.83042,-1.810594 8.24846,-4.045126 8.24846,-4.045131 4.72013,-1.946579 4.72007,-1.94658 6.47867,-2.124046 6.47868,-2.124047 6.72786,-1.737076 6.72783,-1.737075 4.73444,-0.841578 4.73441,-0.841574 4.48523,-0.699915 4.48522,-0.699915 5.23278,-0.375359 5.23278,-0.37536 13.95403,0.04152 13.95409,0.04151 5.98033,0.605978 5.98028,0.605978 2.74097,0.442911 2.74097,0.442958 3.73774,0.576278 3.73768,0.576285 5.73111,1.498186 5.73116,1.498186 1.79786,0.434981 1.79792,0.43498 5.92667,2.038389 5.92668,2.03839 0.99671,0.451822 0.99671,0.451822 3.7377,1.457076 3.73772,1.457077 3.48853,1.589643 3.48848,1.589646 2.99018,1.505535 2.99014,1.505533 5.48195,3.02659 5.48194,3.026589 6.2295,4.150125 6.22949,4.15013 2.37639,1.670033 2.3764,1.670037 1.6105,1.444378 1.61046,1.444383 1.26771,0.814109 1.26773,0.814105 7.20441,6.538603 7.20438,6.538602 5.17119,5.851648 5.17116,5.851653 4.29765,5.661789 4.29764,5.661784 1.21868,1.813607 1.21868,1.81359 2.21998,3.41874 2.21996,3.41871 3.89728,7.00599 3.89733,7.00599 3.22256,7.31346 3.22255,7.31346 1.00923,2.94374 1.00917,2.94375 1.52668,4.23605 1.52667,4.23606 2.04208,7.72456 2.04213,7.72458 0.44972,3.23933 0.44973,3.23933 0.25332,1.24591 0.25332,1.2459 0.22486,1.2459 0.22486,1.24589 0.43712,2.74098 0.43713,2.74097 -0.21366,0.57071 -0.21366,0.57072 0.55178,2.04923 0.5518,2.04922 0.31444,6.59971 0.31443,6.59971 -0.009,2.99016 -0.009,2.99016 -0.33496,8.22292 -0.33496,8.22294 -0.52646,1.60993 -0.52647,1.60992 0.22999,0.38352 0.23,0.38353 -0.43666,2.49179 -0.43713,2.4918 -0.24631,1.99343 -0.24633,1.99343 -0.48471,2.24263 -0.48471,2.24262 -1.09436,5.23276 -1.09431,5.23279 -0.71418,1.99343 -0.7142,1.99343 -0.68676,2.56588 -0.68676,2.56588 -2.47384,6.65378 -2.4738,6.65377 -2.48626,5.60846 -2.4862,5.60845 -2.7316,5.10628 -2.7316,5.10626 -3.60892,5.73113 -3.60899,5.73114 -2.29918,2.94437 -2.29918,2.94436 -2.88797,3.78348 -2.88792,3.78349 -5.52664,6.07499 -5.52664,6.07503 -5.21981,4.63969 -5.21986,4.63975 -7.6562,5.73116 -7.65619,5.73111 -6.36833,3.81233 -6.36833,3.81238 -5.75626,2.91549 -5.75626,2.9155 -2.71587,1.18678 -2.71583,1.18681 -3.48853,1.48637 -3.48851,1.48637 -8.91546,2.92759 -8.91542,2.92757 -3.54353,0.74111 -3.54356,0.74106 -4.7344,1.20525 -4.73441,1.20525 -7.47542,1.05008 -7.47537,1.05008 -4.98361,0.4208 -4.98357,0.4208 -8.7213,0.1022 -8.7213,0.1022 -0.74755,0.13623 -0.74754,0.13621 z m 26.66224,-6.90091 5.98033,-0.49343 5.48194,-0.77652 5.48195,-0.77651 5.23278,-1.01925 5.23279,-1.01925 1.74425,-0.38814 1.74421,-0.38815 2.74102,-0.5991 2.74098,-0.59904 4.73439,-1.484 4.73441,-1.48403 3.73769,-1.25503 3.73773,-1.25507 7.47537,-3.18403 7.47538,-3.18402 4.23606,-2.14953 4.23607,-2.14947 4.98357,-2.93066 4.9836,-2.93066 6.15434,-4.27642 6.15434,-4.27637 1.07187,-0.73113 1.07188,-0.73107 3.98689,-3.41869 3.98685,-3.41868 6.38304,-6.31575 6.38302,-6.31579 3.83332,-4.67553 3.83336,-4.67552 1.61303,-2.05233 1.61308,-2.05232 2.07078,-2.99016 2.07082,-2.99016 1.99931,-3.23933 1.99925,-3.23934 2.5937,-4.48523 2.59374,-4.48523 1.11642,-2.24263 1.11642,-2.24261 2.23163,-4.98359 2.23163,-4.98361 2.01046,-5.23276 2.01045,-5.23278 0.99326,-3.23933 0.99327,-3.23934 1.19092,-3.87731 1.19087,-3.8773 1.02905,-5.59152 1.02904,-5.59153 0.97778,-6.72784 0.97776,-6.72786 0.20201,-2.24261 0.202,-2.24262 0.33403,-5.23278 0.33403,-5.23277 -0.56132,-9.71801 -0.56132,-9.71801 -0.75188,-4.73442 -0.75184,-4.73441 -1.26967,-6.97704 -1.26962,-6.97702 -1.74483,-6.2295 -1.74486,-6.22948 -2.24885,-6.2295 -2.24888,-6.2295 -2.00262,-4.73441 -2.00267,-4.73441 -3.98177,-7.72457 -3.98177,-7.72457 -3.23323,-5.23278 -3.23329,-5.23276 -0.82392,-1.10163 -0.82396,-1.10162 -5.11984,-6.736973 -5.11979,-6.736979 -5.84411,-6.095096 -5.8441,-6.09509 -1.44284,-1.266271 -1.44289,-1.266271 -3.78989,-3.43078 -3.78989,-3.430779 -3.69453,-2.798715 -3.69458,-2.798709 -3.78845,-2.740979 -3.78849,-2.740977 -4.72679,-3.037445 -4.72681,-3.03745 -4.98356,-2.729805 -4.98362,-2.729805 -5.63253,-2.609127 -5.63254,-2.609122 -2.34122,-1.013587 -2.34121,-1.013582 -5.48558,-1.935845 -5.48564,-1.935844 -5.97664,-1.760602 -5.97665,-1.760598 -6.22948,-1.213975 -6.2295,-1.213971 -7.47355,-1.070604 -7.47351,-1.0706 -0.4096,-0.253226 -0.4096,-0.253225 -17.78224,0.05939 -17.78226,0.05939 -2.74097,0.496421 -2.74097,0.49642 -9.46884,1.533497 -9.4688,1.533493 -7.2262,2.000718 -7.22622,2.000714 -6.47871,2.13996 -6.47867,2.13996 -8.7213,4.129039 -8.72127,4.129038 -1.85895,1.153724 -1.85894,1.15372 -0.38367,7.41e-4 -0.38365,7.37e-4 -4.54689,2.86483 -4.546895,2.864824 -2.817637,1.871437 -2.817636,1.871438 -5.761762,4.358056 -5.761774,4.358055 -2.322855,1.800719 -2.322844,1.800723 -8.721288,8.92145 -8.721287,8.921446 -6.092545,7.966309 -6.092534,7.966313 -1.828933,2.99014 -1.828933,2.99016 -1.25367,2.24262 -1.253672,2.24261 -0.639025,0.75537 -0.639026,0.75537 -4.023583,8.04495 -4.023577,8.04495 -1.75638,4.65539 -1.756385,4.65539 -2.209951,6.72784 -2.209946,6.72786 -1.019694,4.10386 -1.019699,4.10387 -0.990253,4.61742 -0.990256,4.61742 -0.221502,1.80578 -0.221503,1.80579 -0.537623,4.17453 -0.537624,4.17453 -0.496327,9.96719 -0.496328,9.96719 0.526297,8.47211 0.526301,8.47211 0.937811,6.97703 0.937816,6.97703 1.49806,6.72786 1.49806,6.72784 1.838101,5.73114 1.8381,5.73113 1.717025,4.48524 1.71702,4.48523 0.879277,1.99344 0.879276,1.99343 3.608859,7.22622 3.608862,7.22621 2.89625,4.91597 2.896249,4.91598 2.433379,3.42686 2.433377,3.42685 2.893585,3.86697 2.893576,3.86698 6.534981,7.3438 6.53498,7.34378 6.768117,6.17972 6.768117,6.17976 4.485234,3.37857 4.485245,3.37856 4.734415,3.09198 4.734414,3.09197 4.485233,2.58204 4.48523,2.58203 8.65661,4.25636 8.65659,4.25636 5.54665,1.98998 5.54666,1.98992 5.48196,1.7075 5.48194,1.70745 3.7377,0.95767 3.73768,0.95766 3.98689,0.83567 3.98687,0.83568 3.73768,0.70803 3.73769,0.70798 1.49507,0.17915 1.49509,0.1796 5.73112,0.55465 5.73117,0.55468 1.74425,0.16795 1.74426,0.16795 10.9639,0.0718 10.96389,0.0718 z m -28.80565,-6.28552 -0.3886,-0.38861 -3.34396,-0.10496 -3.34389,-0.10497 -2.74098,-0.27384 -2.74097,-0.27385 -3.60541,-0.51195 -3.60538,-0.51201 -4.61755,-1.05745 -4.61753,-1.05741 -4.23607,-0.89958 -4.23602,-0.89955 -8.97047,-3.06496 -8.97048,-3.06498 -2.07739,-0.75776 -2.07736,-0.75776 -11.12913,-5.5837 -11.12918,-5.58369 -5.99776,-4.00388 -5.997506,-4.00355 -4.716989,-3.68432 -4.716977,-3.68432 -7.108821,-6.40598 -7.10882,-6.40595 -3.605898,-4.25551 -3.60591,-4.25551 -4.608754,-5.79795 -4.608753,-5.79794 -3.192742,-4.73442 -3.192731,-4.73441 -3.737645,-6.72786 -3.737649,-6.72784 -2.268378,-4.9836 -2.268383,-4.98359 -2.195731,-5.73114 -2.195728,-5.73112 -1.579122,-4.869 -1.579118,-4.86898 -1.444061,-6.09492 -1.444061,-6.09492 -0.808497,-4.73442 -0.808497,-4.73441 -0.585792,-8.47211 -0.585796,-8.47212 -0.01213,-5.48194 -0.01213,-5.48196 0.385203,-6.34646 0.385203,-6.34647 0.491961,-2.59409 0.491961,-2.5941 0.774236,-5.2142 0.774231,-5.21418 0.654719,-2.04193 0.654719,-2.04194 0.846356,-3.63278 0.846359,-3.63278 2.001998,-6.08522 2.001991,-6.08522 2.165744,-5.48546 2.16574,-5.48545 2.486208,-5.22928 2.486203,-5.22927 4.147626,-7.08789 4.147636,-7.08789 4.236054,-5.83108 4.236053,-5.831087 3.617465,-4.390904 3.617465,-4.390903 4.779866,-4.979933 4.779853,-4.979937 6.37119,-5.268767 6.371177,-5.268772 4.41833,-3.092466 4.418329,-3.092471 3.986873,-2.53739 3.98687,-2.53739 3.48851,-2.047561 3.48853,-2.047558 7.72455,-3.708398 7.72459,-3.708394 3.23936,-1.271324 3.2393,-1.27132 5.48194,-1.793445 5.48196,-1.793444 3.73772,-1.185662 3.7377,-1.185662 4.48522,-1.00491 4.48523,-1.004911 3.20171,-0.565722 3.20171,-0.565722 4.53014,-0.680041 4.53011,-0.680046 8.71403,-0.594958 8.71402,-0.594964 9.71801,0.320264 9.71802,0.320264 3.98685,0.485821 3.98685,0.485826 5.482,0.744631 5.48195,0.744632 2.4918,0.553045 2.49177,0.553052 5.73116,1.52224 5.73111,1.522245 4.48523,1.47501 4.48524,1.475005 6.47865,2.48472 6.47871,2.48472 8.97047,4.583889 8.97047,4.583887 5.48194,3.444149 5.48194,3.444151 4.73441,3.476549 4.73445,3.476549 3.23931,2.712166 3.23935,2.712162 6.1262,5.772395 6.12626,5.772391 4.43835,5.009878 4.43839,5.009879 2.67113,3.488513 2.67119,3.488519 2.99574,4.48523 2.99573,4.48524 3.26296,5.48195 3.26296,5.48196 2.02595,4.03354 2.02599,4.03356 2.31718,5.15573 2.31715,5.15573 1.71202,4.76478 1.71203,4.76478 2.25062,7.44726 2.25061,7.44727 1.48786,7.41298 1.48792,7.41297 0.82097,6.56921 0.82103,6.56922 0.0373,12.70816 0.0373,12.70816 -0.63171,4.73442 -0.63167,4.73441 -1.01117,5.23278 -1.01118,5.23277 -0.97763,4.78871 -0.97763,4.78871 -1.53079,4.9293 -1.53073,4.9293 -2.51215,6.72786 -2.51209,6.72784 -3.57459,7.25893 -3.57465,7.25891 -2.21712,3.62141 -2.21707,3.6214 -3.96931,6.06389 -3.96928,6.0639 -1.79832,1.99344 -1.79833,1.99344 -2.83731,3.59681 -2.83731,3.59682 -5.57922,5.56153 -5.57921,5.56156 -4.10185,3.426 -4.1019,3.42605 -3.14344,2.40587 -3.14343,2.40588 -4.16063,2.86245 -4.16064,2.8625 -5.05905,3.03605 -5.059,3.03604 -7.97375,3.82867 -7.97376,3.8287 -6.22949,2.29629 -6.2295,2.2962 -4.98356,1.51604 -4.98362,1.51604 -4.58291,0.99648 -4.58293,0.99648 -1.14818,0.46683 -1.14825,0.46681 -4.7344,0.77282 -4.73445,0.7728 -5.23273,0.57899 -5.23278,0.57904 -2.99019,0.18427 -2.99013,0.18428 -12.96274,0.27711 -12.96273,0.27711 z m 27.80894,-43.80688 1.99342,-0.16 5.48195,-1.02051 5.48195,-1.0205 3.73768,-0.7414 3.73774,-0.74132 4.23602,-1.20241 4.23606,-1.20241 4.98362,-1.8542 4.98356,-1.8542 6.47871,-3.16671 6.47866,-3.1667 4.73441,-3.07049 4.73439,-3.07049 3.50933,-2.63458 3.50932,-2.63456 4.7651,-4.24254 4.76515,-4.24253 4.46815,-5.15185 4.46817,-5.15187 3.02345,-3.98687 3.02344,-3.98687 3.11858,-4.9836 3.11861,-4.98359 1.88049,-3.98688 1.88049,-3.98687 1.74043,-3.98687 1.74048,-3.98689 2.07469,-6.64987 2.0747,-6.64985 0.96438,-5.55995 0.96438,-5.55993 0.57652,-7.70922 0.57648,-7.7092 -0.58282,-8.98584 -0.58282,-8.98583 -1.17885,-5.98032 -1.17879,-5.9803 -1.83923,-5.86459 -1.83921,-5.86459 -2.50025,-6.09603 -2.50025,-6.09604 -1.62376,-2.99015 -1.62371,-2.99017 -2.42532,-3.98687 -2.42529,-3.98687 -3.22358,-4.73442 -3.22359,-4.73441 -3.7369,-4.48524 -3.73688,-4.48523 -3.27939,-3.17726 -3.27942,-3.17725 -3.48852,-3.08879 -3.48853,-3.08879 -4.23602,-3.03948 -4.23606,-3.03948 -4.40458,-2.759535 -4.40456,-2.759525 -5.31345,-2.688546 -5.31344,-2.68854 -5.98033,-2.271276 -5.98028,-2.27127 -4.98361,-1.496969 -4.98357,-1.496963 -3.73772,-0.759369 -3.7377,-0.759368 -5.23277,-0.756779 -5.23274,-0.756775 -3.73773,-0.260736 -3.73769,-0.260736 -7.97375,-0.04525 -7.97376,-0.04526 -6.22949,0.769203 -6.2295,0.769201 -3.38066,0.512996 -3.38064,0.513001 -2.84884,0.953874 -2.84883,0.953877 -4.48523,1.289336 -4.48524,1.289336 -5.23277,2.084108 -5.23274,2.084109 -6.51337,3.319538 -6.51338,3.319554 -3.95219,2.553824 -3.95218,2.55383 -5.44254,4.12325 -5.44249,4.12325 -5.8024,5.73468 -5.8024,5.73466 -4.734787,5.98032 -4.734771,5.98032 -3.191763,4.98359 -3.191753,4.9836 -3.642797,7.28339 -3.642786,7.2834 -1.989897,5.62607 -1.989898,5.62608 -1.243139,4.90418 -1.243151,4.90418 -0.988262,5.78068 -0.98825,5.78068 -0.259803,0.42032 -0.259804,0.42034 -0.04017,9.87376 -0.04017,9.87375 1.074537,7.22622 1.074525,7.2262 1.185339,5.48196 1.185338,5.48195 2.057919,6.2295 2.057918,6.22948 3.657472,7.4754 3.657484,7.4754 3.962277,5.9803 3.962266,5.98032 1.444061,1.55477 1.44406,1.55477 3.737695,4.32919 3.73769,4.32919 4.23607,3.90124 4.23605,3.90124 4.48525,3.61848 4.48523,3.61849 4.129,2.68267 4.12905,2.68267 6.08735,3.20257 6.08733,3.20257 3.73768,1.55165 3.7377,1.55164 3.48852,1.17153 3.48851,1.17153 4.23607,1.26713 4.23602,1.26714 4.98361,1.02051 4.98361,1.0205 3.48847,0.70897 3.48852,0.70892 5.45428,0.0475 5.45424,0.0475 0.27664,0.29716 0.27665,0.29718 9.96718,-0.36482 9.96722,-0.36482 z m -21.92783,-5.57765 -3.98687,-0.11551 -6.72786,-0.80252 -6.72784,-0.80253 -2.24263,-0.64181 -2.2426,-0.64181 -3.43182,-0.6266 -3.43179,-0.6266 -5.78784,-1.87002 -5.78785,-1.87002 -4.48523,-1.99236 -4.48524,-1.99238 -3.70535,-1.86771 -3.70533,-1.86771 -4.26844,-2.5891 -4.26839,-2.58909 -4.48524,-3.40425 -4.48523,-3.40426 -2.99014,-2.51687 -2.99016,-2.51687 -2.48626,-2.26255 -2.48626,-2.26255 -3.28182,-3.73769 -3.28183,-3.7377 -2.20567,-2.92285 -2.20567,-2.92284 -2.13281,-3.05746 -2.132823,-3.05747 -2.642646,-4.73442 -2.642646,-4.73441 -2.014022,-4.48524 -2.014033,-4.48523 -1.765186,-5.48195 -1.765186,-5.48196 -0.543018,-2.49179 -0.543017,-2.4918 -0.797745,-4.23606 -0.797746,-4.23605 -0.479439,-3.73769 -0.479427,-3.73771 0.237878,-12.70816 0.237878,-12.70816 0.571342,-1.99344 0.571342,-1.99343 1.185431,-5.35239 1.185419,-5.35237 2.076668,-6.10988 2.076667,-6.10991 2.409223,-5.11372 2.409222,-5.11373 3.503648,-5.92082 3.503659,-5.92083 2.882999,-3.66704 2.883018,-3.66705 1.30283,-1.74426 1.30283,-1.74427 5.74047,-5.73113 5.74047,-5.73112 2.425,-2.08721 2.425,-2.08722 1.74427,-1.45818 1.74426,-1.45818 5.98032,-3.9924 5.98033,-3.99239 5.48195,-2.75727 5.48194,-2.75727 1.99343,-0.851552 1.99342,-0.851552 2.4918,-0.956899 2.49182,-0.956898 5.98032,-1.957851 5.98029,-1.957855 4.37315,-1.035671 4.37318,-1.035678 0.37274,0.230273 0.37275,0.230272 3.013,-0.696061 3.01296,-0.696062 6.69368,-0.432741 6.69367,-0.432694 7.72482,0.376572 7.72482,0.376573 2.98991,0.534637 2.98991,0.534637 5.98028,1.063169 5.98033,1.063169 2.74097,0.887712 2.74097,0.887712 2.74097,0.825598 2.74097,0.82561 4.73445,2.019949 4.73441,2.019949 5.48194,2.772082 5.48194,2.77209 6.63682,4.49672 6.63681,4.49673 6.81889,6.18291 6.81889,6.18291 4.87804,5.80663 4.87804,5.80663 4.20794,6.30905 4.20793,6.30903 3.46636,7.14667 3.46641,7.14665 2.54079,7.72457 2.54083,7.72457 0.99555,5.48196 0.99561,5.48194 0.77828,5.98032 0.77834,5.98031 -0.25099,7.72457 -0.25099,7.72458 -0.8395,4.73441 -0.83949,4.73442 -0.73957,3.73769 -0.73962,3.73769 -2.0181,6.2295 -2.01816,6.2295 -1.92759,4.66153 -1.92766,4.66153 -2.56821,4.55812 -2.56823,4.55811 -3.36172,5.01266 -3.36171,5.01265 -1.92182,2.38857 -1.92178,2.38856 -5.73115,5.82221 -5.73112,5.82221 -4.73445,3.75454 -4.7344,3.75453 -2.24259,1.51149 -2.24264,1.51148 -3.2393,2.00807 -3.23936,2.00806 -3.23935,1.76818 -3.23931,1.76818 -4.23607,1.8607 -4.23606,1.86069 -3.98685,1.44185 -3.98691,1.44187 -3.98685,1.17465 -3.9869,1.17466 -2.49181,0.36104 -2.49176,0.36099 -1.12823,0.4207 -1.12817,0.42071 -5.10131,0.76334 -5.10128,0.76334 -3.9869,0.24474 -3.98685,0.24474 -4.98361,0.12376 -4.98356,0.12377 z m -48.34897,-34.89591 7.63059,-5.85572 7.84,-5.73113 7.83996,-5.73114 4.87607,-3.73769 4.87607,-3.7377 5.40049,-4.08876 5.40055,-4.08876 4.40569,-3.26204 4.4057,-3.26204 h 0.40866 0.40867 l 2.46419,1.9478 2.46414,1.94779 7.42318,5.51047 7.42321,5.51045 2.4918,1.94084 2.49182,1.94085 2.64617,1.83853 2.64622,1.83854 5.87093,4.33609 5.87098,4.3361 6.3687,4.48523 6.3687,4.48524 3.05508,2.11741 3.05508,2.11741 0.62294,6.2e-4 0.62295,6.2e-4 v -0.51822 -0.51821 l -0.93141,-1.849 -0.9314,-1.84898 -4.61082,-12.95736 -4.61087,-12.95734 -2.72809,-7.72457 -2.72815,-7.72457 -1.41919,-4.23605 -1.41923,-4.23606 -2.9893,-8.44246 -2.98935,-8.44246 0.2048,-0.33112 0.2048,-0.33114 5.12342,-3.38197 5.12348,-3.38198 1.74426,-1.13249 1.74426,-1.13248 5.75626,-3.90534 5.75626,-3.90535 0.78407,-0.49836 0.78404,-0.49836 15.63666,-10.40539 15.63666,-10.4054 2.60112,-1.75213 2.60111,-1.75213 -0.26312,-0.42607 -0.26312,-0.42602 h -39.52913 -39.52915 l -0.49679,-0.62295 -0.49675,-0.62295 -0.25472,-1.49508 -0.25471,-1.49507 -1.10174,-4.48525 -1.10172,-4.48523 -1.92261,-7.97375 -1.92256,-7.97375 -1.26496,-5.48195 -1.26501,-5.48196 -0.48177,-1.49508 -0.48178,-1.49507 -2.44865,-10.46555 -2.44866,-10.46555 -2.09834,-8.97046 -2.09835,-8.97047 -0.21693,-1.121311 -0.21693,-1.121307 h -0.45298 -0.45299 l -1.08111,4.859 -1.08111,4.859008 -1.17151,4.48523 -1.17147,4.48523 -2.05953,8.97047 -2.05953,8.97048 -1.72663,7.2262 -1.72663,7.22622 -0.46852,1.99343 -0.46848,1.99344 -1.02913,4.48524 -1.02914,4.48523 -1.48324,6.2295 -1.48325,6.22948 -0.80544,3.48853 -0.80544,3.48851 -0.17168,0.64774 -0.17167,0.64774 -39.86382,-0.14938 -39.863843,-0.14938 1.110273,1.05178 1.11026,1.0518 8.72129,5.63985 8.72128,5.63985 4.23606,3.04171 4.23607,3.04171 2.99014,1.85623 2.99018,1.85621 2.74098,1.93393 2.74097,1.93392 10.71474,7.30398 10.71472,7.30399 0.84239,0.69624 0.84244,0.69626 -11.11938,33.04662 -11.11934,33.04664 -1.06072,2.73394 -1.06078,2.73394 v 0.62998 0.62998 h 0.54131 0.54124 z m 105.11437,-7.17862 -0.35549,-0.57536 0.5754,0.35558 0.57536,0.35557 v 0.21979 0.21977 h -0.21973 -0.21973 z m -102.72291,-2.52803 1.82236,-2.84884 5.52342,-7.36485 5.52341,-7.36484 2.83928,-3.70743 2.83926,-3.70745 1.99348,-2.82063 1.99343,-2.82062 2.94613,-3.93748 2.94619,-3.93749 3.78169,-5.17319 3.78167,-5.1732 2.99014,-3.98618 2.99018,-3.98621 0.99673,-1.3607 0.99671,-1.36069 0.98196,-1.44054 0.98203,-1.44054 1.88356,-2.53708 1.88356,-2.53708 v -0.76599 -0.76599 l -3.11474,0.67834 -3.11476,0.67836 -3.48851,0.97907 -3.48848,0.97906 -3.48852,1.0253 -3.48852,1.0253 -1.9972,0.56681 -1.99716,0.56681 -7.72079,-3.85985 -7.72086,-3.85984 -2.99014,-1.63674 -2.99019,-1.63674 -6.97704,-3.63411 -6.977,-3.63411 -2.99019,-1.58926 -2.99014,-1.58927 -4.23606,-2.23884 -4.23607,-2.23886 -5.48195,-2.86705 -5.48194,-2.86705 -0.47344,-0.44188 -0.47344,-0.44188 0.72262,0.0104 0.72261,0.0103 4.48526,1.193 4.48524,1.19298 12.20976,3.59738 12.20984,3.59738 3.23935,0.91482 3.2393,0.91482 6.72788,1.98246 6.72782,1.98245 4.98362,1.47704 4.98359,1.47704 1.436,0.5559 1.43598,0.55591 2.3017,0.50263 2.3017,0.50264 3.73769,1.16971 3.73768,1.16972 2.85929,0.87312 2.85928,0.87312 0.79182,-0.65716 0.79181,-0.65714 0.40588,0.6566 0.40587,0.65662 1.9234,-0.35343 1.92344,-0.35344 2.2426,-0.69419 2.24264,-0.69421 14.95079,-4.44068 14.95075,-4.44068 6.72788,-2.02356 6.72782,-2.02355 5.73116,-1.74544 5.73112,-1.74543 7.72458,-2.29737 7.72459,-2.29737 4.36062,-1.12262 4.36064,-1.12263 -0.014,0.27721 -0.014,0.27721 -1.60346,0.76846 -1.60342,0.76847 -10.71473,5.5314 -10.71472,5.5314 -9.96724,5.18796 -9.96717,5.18797 -9.33174,4.58425 -9.33174,4.58426 h -1.07369 -1.07368 l -8.03385,-2.42432 -8.03389,-2.42432 -2.05127,-0.56584 -2.05122,-0.56583 h -0.81431 -0.81431 v 0.7992 0.7992 l 3.64686,4.80735 3.64685,4.80734 5.14256,7.2262 5.1426,7.22622 1.13164,1.24589 1.13162,1.2459 1.91496,2.81238 1.91496,2.81239 11.31718,15.12856 11.31724,15.12856 2.0224,2.59782 2.02244,2.59782 0.2939,0.76611 0.29391,0.7661 h -0.53729 -0.53724 l -7.86356,-7.09906 -7.86356,-7.09905 -2.24264,-2.20857 -2.24259,-2.20858 -5.98033,-5.50597 -5.98033,-5.50598 -1.74892,-1.75685 -1.74892,-1.75685 -7.63489,-6.91738 -7.63482,-6.91739 -2.32577,2.18297 -2.32573,2.18297 -5.48386,5.18049 -5.48386,5.18046 -4.00734,3.79 -4.00733,3.79 -4.24459,3.98687 -4.24465,3.98688 -3.95784,3.65306 -3.95783,3.65306 -1.99348,1.86711 -1.99342,1.8671 -4.20477,3.44762 -4.20476,3.44762 z m 44.29629,-79.66056 -5.1498,-7.02472 -0.98989,-1.67774 -0.98991,-1.67774 0.75785,-4.136 0.75787,-4.13599 0.53565,-4.9836 0.53565,-4.98359 1.00357,-6.97704 1.00358,-6.97702 0.43992,-1.2459 0.43992,-1.24591 0.5364,-3.98687 0.53646,-3.98687 0.98822,-6.72785 0.98818,-6.72785 1.74411,-10.41474 1.74417,-10.41472 0.25846,-0.25846 0.25844,-0.25844 0.18614,0.20764 0.18615,0.20764 0.33869,40.36712 0.33869,40.3671 0.0775,6.72502 0.0774,6.725 -0.72688,0.13314 -0.72688,0.13314 z m 5.3989,-89.91758 v -0.24917 h 0.24912 0.24912 v 0.24917 0.24916 h -0.24912 -0.24912 z m -91.93077,212.45208 1.30932,-0.59657 0.88194,-1.77065 0.88194,-1.77064 -0.42966,-1.58831 -0.42967,-1.58832 -1.30698,-1.02807 -1.30699,-1.02806 h -2.44724 -2.44724 l -1.223247,1.22324 -1.223239,1.22324 v 2.04886 2.04885 l 0.537596,1.00451 0.537596,1.00451 1.580434,0.68748 1.58043,0.68748 1.09785,0.0196 1.09787,0.0196 z m 193.7207,-1.4265 1.37048,-1.48118 v -1.53487 -1.53488 l -0.98378,-1.3816 -0.9838,-1.38161 -1.53381,-0.63532 -1.53381,-0.63533 -1.99147,0.59666 -1.99147,0.59665 -0.97101,1.59252 -0.97101,1.59253 -0.002,1.13884 -0.002,1.13884 0.84841,1.29483 0.8484,1.29484 1.51879,0.67827 1.5188,0.67827 1.74425,-0.26816 1.74427,-0.26814 z M 56.987033,155.50235 l 2.990163,-1.99027 1.133523,-0.001 1.133523,-0.001 3.156384,1.99344 3.156383,1.99343 h 0.818279 0.818266 v -0.13896 -0.13898 l -1.481592,-3.47415 -1.481593,-3.47413 -0.01358,-1.12457 -0.01358,-1.12458 3.551251,-2.2763 3.55124,-2.27629 -0.440249,-0.44025 -0.44025,-0.44025 -4.429079,-0.14574 -4.429079,-0.14575 -1.61478,-4.48523 -1.614781,-4.48522 h -0.63492 -0.634933 l -1.412892,4.20484 -1.412881,4.20484 -0.625863,0.39733 -0.625874,0.39733 -3.488513,0.0154 -3.488514,0.0154 -0.733108,0.46363 -0.733103,0.46362 0.234751,0.20336 0.234751,0.20335 2.740973,1.73466 2.740983,1.73468 0.695668,0.84413 0.695667,0.84413 -1.069438,3.68058 -1.069438,3.68059 v 0.54138 0.54137 l 0.622951,-0.001 0.622951,-0.001 z m 275.172687,-0.24819 3.41024,-2.24161 0.47258,-0.001 0.47262,-0.001 3.34255,2.24261 3.34255,2.24262 h 0.79466 0.79467 v -0.48699 -0.48698 l -1.24589,-3.31004 -1.24592,-3.31005 v -0.90097 -0.90098 l 3.55309,-2.15444 3.55304,-2.15443 0.0602,-0.49836 0.0602,-0.49835 -4.62948,-0.24917 -4.62948,-0.24917 -0.48037,-0.74754 -0.48037,-0.74754 -0.55483,-1.99343 -0.55484,-1.99345 -0.62546,-1.72293 -0.6254,-1.72295 -0.51606,-0.17201 -0.51602,-0.17199 -1.59078,4.13756 -1.59082,4.13757 -0.50995,0.62295 -0.50995,0.62295 h -3.92583 -3.92583 v 0.45461 0.45463 l 3.2393,2.31154 3.23936,2.31154 v 0.73172 0.73172 l -1.24592,3.56603 -1.24589,3.56604 v 0.41147 0.41146 h 0.45205 0.45206 z m -243.698027,-29.27962 2.499491,-3.11474 4.586737,-4.86793 4.586749,-4.86793 -0.393557,-0.68235 -0.393555,-0.68238 -2.165176,-1.80051 -2.165187,-1.80051 h -0.415757 -0.415757 l -4.645262,4.9803 -4.645261,4.98029 -0.434518,0.003 -0.434506,0.003 -8.350613,-7.97374 -8.350602,-7.97376 h -0.615987 -0.615988 l -1.916121,2.11803 -1.916122,2.11802 -0.03959,0.49836 -0.03971,0.49836 11.107756,10.83365 11.107756,10.83363 0.782691,0.006 0.782702,0.006 z m 222.944227,-9.0907 0.58175,-5.97596 0.19033,-0.30786 0.19035,-0.30785 3.2589,-0.33388 3.25889,-0.33389 1.36494,-0.51286 1.36493,-0.51287 2.12989,-2.07989 2.12993,-2.0799 0.52077,-1.93415 0.52081,-1.93415 -0.34801,-2.061909 -0.34802,-2.061889 -1.59749,-2.491803 -1.59745,-2.491795 -3.69524,-3.589998 -3.69528,-3.589992 -2.06825,-1.485273 -2.06827,-1.485274 -0.32842,-0.531278 -0.32842,-0.531275 h -0.85019 -0.85018 l -5.99675,6.104902 -5.99669,6.104906 -4.33675,4.592532 -4.33679,4.592526 0.0234,0.64025 0.0234,0.64024 2.4244,1.86884 2.42444,1.86885 h 0.61053 0.61058 l 2.96826,-3.23933 2.96826,-3.23934 h 0.90826 0.90826 l 1.35146,1.6061 1.35145,1.6061 -0.29017,3.25291 -0.29018,3.2529 -0.3009,3.73769 -0.30091,3.7377 3.09997,3.13626 3.0999,3.13627 0.38162,-0.39529 0.38161,-0.39528 z m 1.57692,-14.73493 -1.15766,-0.46414 -2.95381,-2.569146 -2.95379,-2.569147 v -0.805963 -0.80594 l 2.28123,-2.60783 2.28126,-2.60783 h 0.5977 0.59766 l 3.28194,3.363922 3.28191,3.363934 0.2967,0.858078 0.2967,0.85809 -0.54475,1.562734 -0.54475,1.562718 -1.66085,0.69393 -1.6608,0.69393 -0.14042,-0.0318 -0.14042,-0.0318 z m -200.42873,1.05334 2.24262,-1.15913 2.76647,-2.387886 2.76649,-2.387884 1.4609,-2.652912 1.4609,-2.652921 0.009,-4.485234 0.009,-4.485233 -1.4489,-2.491798 -1.44886,-2.491798 -2.28882,-2.40829 -2.28878,-2.408291 -2.49183,-1.278812 -2.4918,-1.278806 -4.48523,-0.226401 -4.48523,-0.2264 -2.841457,1.074704 -2.841461,1.074711 -2.410028,2.166818 -2.410029,2.166817 -1.329471,2.442687 -1.329484,2.442692 -0.450274,2.871411 -0.450285,2.871411 0.39756,2.085714 0.397572,2.085713 0.797734,2.24262 0.797734,2.242612 1.579032,1.993442 1.57902,1.993431 0.980332,0.747543 0.980332,0.74754 2.778239,1.5998 2.778244,1.5998 4.73441,-0.13432 4.73441,-0.13426 z M 101.20518,95.911533 98.631012,94.628778 97.12045,91.988584 95.609888,89.348392 v -2.699304 -2.699304 l 1.121311,-2.213054 1.121311,-2.213053 2.6733,-1.381059 2.67329,-1.381062 h 2.3565 2.35651 l 2.16263,1.143633 2.16264,1.14363 1.65345,2.399301 1.65344,2.399301 0.079,2.063609 0.0788,2.063615 -0.0863,0.996717 -0.0864,0.996718 -1.11383,2.167765 -1.11382,2.167767 -2.74097,1.445223 -2.74098,1.445223 -2.02018,1.15e-4 -2.02018,1.15e-4 z m 184.78177,1.905706 0.003,-0.872131 0.47478,-3.986873 0.47472,-3.986873 0.52567,-3.986876 0.52567,-3.986877 0.77246,-6.967901 0.77246,-6.967902 0.1992,-0.199249 0.19921,-0.199249 -0.47818,-0.89351 -0.47823,-0.893511 -2.93337,-1.781941 -2.93341,-1.781941 h -0.78104 -0.7811 l -2.89142,2.370788 -2.89142,2.370788 -1.90926,1.491496 -1.90928,1.491497 -2.17434,1.74426 -2.17439,1.744259 -6.51775,5.198982 -6.5178,5.198981 0.17681,0.530295 0.17681,0.530293 3.28227,1.446063 3.28228,1.446063 2.15875,-1.857334 2.15881,-1.85734 1.50597,0.238763 1.50601,0.238763 5.88935,2.62413 5.88936,2.624126 -0.34242,3.86748 -0.34243,3.867474 1.91743,1.011546 1.91748,1.011534 1.12127,0.02198 1.12132,0.02187 z m -8.47587,-17.317987 -2.70738,-1.74426 h -0.39047 -0.39047 v -0.68885 -0.688844 l 3.76693,-2.799671 3.76699,-2.799666 h 0.46908 0.46908 l -0.009,0.373774 -0.009,0.373773 -0.49036,3.488515 -0.49039,3.488515 -0.28691,1.370488 -0.28691,1.370487 h -0.35082 -0.35082 z m -140.54647,7.433172 2.5646,-1.288118 0.25052,-0.653385 0.25051,-0.653389 -1.47116,-2.9175 -1.47121,-2.917498 -1.35487,-3.239339 -1.35489,-3.239335 -1.14493,-2.491797 -1.14493,-2.491798 -0.33215,-1.121306 -0.33217,-1.121311 h 0.44459 0.44413 l 3.03697,3.114747 3.03699,3.114747 5.23624,4.859002 5.23618,4.859007 0.66031,-0.0075 0.66031,-0.0075 0.74754,-0.472566 0.74755,-0.472563 -0.17401,-11.480431 -0.17401,-11.480426 h 0.42732 0.42734 l 0.89548,2.367205 0.89552,2.367209 2.70202,7.438822 2.70202,7.438823 0.48397,0.483964 0.48396,0.48396 3.01622,-0.64008 3.01617,-0.640081 v -0.619375 -0.619408 l -2.79662,-7.909193 -2.79668,-7.909192 -1.45847,-4.236054 -1.45848,-4.236057 -0.77119,-2.491797 -0.77121,-2.491797 -0.5802,-0.595043 -0.58021,-0.595042 -4.98362,1.383115 -4.9836,1.383115 -0.3373,5.19224 -0.33728,5.19224 0.2785,4.078739 0.27851,4.078734 -0.31304,0.815271 -0.31302,0.815271 -6.94678,-7.012034 -6.94677,-7.012034 h -0.81266 -0.81267 l -3.81019,1.76042 -3.81023,1.76042 -0.35688,0.57732 -0.35689,0.577315 0.65895,1.275368 0.65891,1.275368 2.24507,5.731134 2.24502,5.731132 1.5339,3.865596 1.53397,3.865591 0.9195,2.114722 0.9195,2.114716 0.91139,2.118029 0.91138,2.118028 h 0.63088 0.63092 z m 111.64706,-7.806941 0.48242,-1.12131 2.75744,-9.468828 2.75744,-9.468829 0.50716,-1.868849 0.50715,-1.868847 h 0.23652 0.23652 l 4.34622,1.752536 4.34621,1.752536 0.59373,-0.227847 0.59374,-0.227846 1.01178,-2.287226 1.01174,-2.287221 -0.25519,-0.665047 -0.25518,-0.665048 -1.09389,-0.495576 -1.09389,-0.495576 -5.73111,-2.281884 -5.73116,-2.281888 -6.22949,-1.983746 -6.2295,-1.983747 -0.84682,0.831417 -0.84687,0.831421 -0.60642,2.290361 -0.60647,2.290359 0.28177,0.733804 0.28178,0.733803 2.89945,0.648869 2.89944,0.648869 1.11041,0.505938 1.1104,0.505933 0.22114,0.576101 0.22112,0.576102 -2.89627,8.813405 -2.89624,8.813404 -0.61976,2.769441 -0.61978,2.76944 0.47637,0.476365 0.47636,0.47637 2.72142,0.965653 2.72139,0.965657 0.63366,0.03639 0.63362,0.03639 z m -67.56793,-5.358745 0.7495,-0.748912 -0.82008,-4.162549 -0.82004,-4.162553 0.51512,-0.819666 0.51513,-0.819665 3.43608,-0.327541 3.43609,-0.327542 2.4918,-0.570923 2.49181,-0.570923 1.5759,-1.074636 1.57593,-1.074641 1.32328,-2.013785 1.32332,-2.013791 -0.15814,-3.986872 -0.15816,-3.986877 -1.15388,-1.617745 -1.15384,-1.617746 -2.33468,-1.372414 -2.33463,-1.372408 -8.97047,0.05953 -8.97047,0.05953 -2.24259,0.458212 -2.24263,0.458167 0.0373,1.475714 0.0373,1.475719 0.61278,4.983594 0.61281,4.98359 0.47039,1.497995 0.47044,1.497992 0.99166,7.040896 0.99168,7.040897 0.34382,0.929941 0.34382,0.929936 0.36294,0.249167 0.36295,0.249166 h 2.76981 2.76986 z M 179.6127,57.268357 179.37244,56.578 l -0.54824,-4.163625 -0.5483,-4.163621 0.25985,-0.260038 0.25985,-0.260036 4.79332,-0.06157 4.79332,-0.06158 1.20702,1.398281 1.20707,1.398278 v 1.443837 1.443842 l -0.56743,1.245329 -0.56743,1.24533 -1.76147,0.835868 -1.76143,0.835867 -3.14288,0.252292 -3.14283,0.252293 z m 46.11519,16.848403 2.19642,-1.149717 1.61965,-2.395121 1.6197,-2.395122 v -2.153852 -2.153853 l -0.4683,-1.231636 -0.46824,-1.231638 -1.70572,-1.705717 -1.70573,-1.70572 -3.43253,-1.393174 -3.43259,-1.393178 -3.06376,-1.439181 -3.0638,-1.439186 -0.28597,-0.745728 -0.28598,-0.745727 0.46232,-1.215505 0.46232,-1.215505 1.2845,-0.841639 1.28452,-0.841638 2.74969,0.283782 2.7497,0.283781 2.70837,1.528501 2.7083,1.528496 h 0.76244 0.76242 l 0.98752,-1.619667 0.98753,-1.619667 0.002,-0.895927 0.002,-0.895923 -1.25604,-1.164066 -1.25605,-1.164063 -3.20703,-0.805577 -3.20702,-0.805576 -3.63528,0.0028 -3.63525,0.0028 -1.74425,0.485337 -1.74426,0.485336 -1.86444,1.537948 -1.86439,1.537948 -0.79957,2.750374 -0.79956,2.750373 0.31677,1.687569 0.31677,1.687564 1.29379,1.537589 1.29378,1.537593 3.29618,1.646702 3.29622,1.646702 2.57032,0.842002 2.57033,0.842002 1.29197,1.197354 1.29193,1.197347 v 1.196924 1.196924 l -1.27421,1.374923 -1.27423,1.374924 -3.08643,-0.221036 -3.08639,-0.221035 -3.66953,-1.816016 -3.66948,-1.816019 -0.93518,0.500489 -0.93518,0.500489 -0.78398,1.516105 -0.78403,1.5161 0.62298,0.750616 0.62295,0.750617 2.52311,1.293745 2.52311,1.293744 2.49176,0.618433 2.4918,0.618435 4.03308,0.04245 4.0331,0.04246 z"
       id="path8" /><path
       style="fill:#000000"
       id="path1"
       d="" /></g></svg>
